<mxfile host="Electron" agent="Mozilla/5.0 (Windows NT 10.0; Win64; x64) AppleWebKit/537.36 (KHTML, like Gecko) draw.io/26.2.15 Chrome/134.0.6998.205 Electron/35.2.1 Safari/537.36" version="26.2.15">
  <diagram name="페이지-1" id="P2zVNhwwsgNUPbniAP3K">
    <mxGraphModel dx="1090" dy="825" grid="1" gridSize="10" guides="1" tooltips="1" connect="1" arrows="1" fold="1" page="1" pageScale="1" pageWidth="1169" pageHeight="827" math="0" shadow="0">
      <root>
        <mxCell id="0" />
        <mxCell id="1" parent="0" />
        <mxCell id="EHeW1iRniFNbXstogo1z-2" value="" style="endArrow=classic;html=1;rounded=0;entryX=0;entryY=0.25;entryDx=0;entryDy=0;" edge="1" parent="1" target="EHeW1iRniFNbXstogo1z-3">
          <mxGeometry width="50" height="50" relative="1" as="geometry">
            <mxPoint x="140" y="290" as="sourcePoint" />
            <mxPoint x="180" y="309.9999999999999" as="targetPoint" />
          </mxGeometry>
        </mxCell>
        <mxCell id="EHeW1iRniFNbXstogo1z-5" style="edgeStyle=orthogonalEdgeStyle;rounded=0;orthogonalLoop=1;jettySize=auto;html=1;exitX=1;exitY=0.25;exitDx=0;exitDy=0;entryX=0;entryY=0.25;entryDx=0;entryDy=0;" edge="1" parent="1" source="EHeW1iRniFNbXstogo1z-3" target="EHeW1iRniFNbXstogo1z-4">
          <mxGeometry relative="1" as="geometry" />
        </mxCell>
        <mxCell id="EHeW1iRniFNbXstogo1z-6" style="edgeStyle=orthogonalEdgeStyle;rounded=0;orthogonalLoop=1;jettySize=auto;html=1;exitX=0;exitY=0.5;exitDx=0;exitDy=0;entryX=1;entryY=0.5;entryDx=0;entryDy=0;" edge="1" parent="1" source="EHeW1iRniFNbXstogo1z-4" target="EHeW1iRniFNbXstogo1z-3">
          <mxGeometry relative="1" as="geometry" />
        </mxCell>
        <mxCell id="EHeW1iRniFNbXstogo1z-7" style="edgeStyle=orthogonalEdgeStyle;rounded=0;orthogonalLoop=1;jettySize=auto;html=1;exitX=1;exitY=0.75;exitDx=0;exitDy=0;entryX=0;entryY=0.75;entryDx=0;entryDy=0;" edge="1" parent="1" source="EHeW1iRniFNbXstogo1z-3" target="EHeW1iRniFNbXstogo1z-4">
          <mxGeometry relative="1" as="geometry" />
        </mxCell>
        <mxCell id="EHeW1iRniFNbXstogo1z-3" value="MASTER" style="rounded=0;whiteSpace=wrap;html=1;fontSize=18;fontStyle=1;fillColor=#f5f5f5;fontColor=#333333;strokeColor=#666666;" vertex="1" parent="1">
          <mxGeometry x="220" y="240" width="120" height="200" as="geometry" />
        </mxCell>
        <mxCell id="EHeW1iRniFNbXstogo1z-4" value="MASTER" style="rounded=0;whiteSpace=wrap;html=1;fontSize=18;fontStyle=1;fillColor=#ffe6cc;strokeColor=#d79b00;" vertex="1" parent="1">
          <mxGeometry x="400" y="240" width="120" height="200" as="geometry" />
        </mxCell>
        <mxCell id="EHeW1iRniFNbXstogo1z-9" value="" style="endArrow=classic;html=1;rounded=0;entryX=0;entryY=0.5;entryDx=0;entryDy=0;" edge="1" parent="1" target="EHeW1iRniFNbXstogo1z-3">
          <mxGeometry width="50" height="50" relative="1" as="geometry">
            <mxPoint x="140" y="340" as="sourcePoint" />
            <mxPoint x="180" y="329.9999999999999" as="targetPoint" />
          </mxGeometry>
        </mxCell>
        <mxCell id="EHeW1iRniFNbXstogo1z-10" value="" style="endArrow=classic;html=1;rounded=0;entryX=0.25;entryY=1;entryDx=0;entryDy=0;edgeStyle=orthogonalEdgeStyle;" edge="1" parent="1" target="EHeW1iRniFNbXstogo1z-4">
          <mxGeometry width="50" height="50" relative="1" as="geometry">
            <mxPoint x="140" y="400" as="sourcePoint" />
            <mxPoint x="190" y="399.9999999999999" as="targetPoint" />
            <Array as="points">
              <mxPoint x="140" y="401" />
              <mxPoint x="200" y="401" />
              <mxPoint x="200" y="450" />
              <mxPoint x="430" y="450" />
            </Array>
          </mxGeometry>
        </mxCell>
        <mxCell id="EHeW1iRniFNbXstogo1z-14" value="txdata" style="text;html=1;align=center;verticalAlign=middle;whiteSpace=wrap;rounded=0;" vertex="1" parent="1">
          <mxGeometry x="110" y="280" width="60" height="10" as="geometry" />
        </mxCell>
        <mxCell id="EHeW1iRniFNbXstogo1z-15" value="rxdata" style="text;html=1;align=center;verticalAlign=middle;whiteSpace=wrap;rounded=0;" vertex="1" parent="1">
          <mxGeometry x="110" y="330" width="60" height="10" as="geometry" />
        </mxCell>
        <mxCell id="EHeW1iRniFNbXstogo1z-16" value="ss" style="text;html=1;align=center;verticalAlign=middle;whiteSpace=wrap;rounded=0;" vertex="1" parent="1">
          <mxGeometry x="110" y="390" width="60" height="10" as="geometry" />
        </mxCell>
        <mxCell id="EHeW1iRniFNbXstogo1z-17" value="MOSI" style="text;html=1;align=center;verticalAlign=middle;whiteSpace=wrap;rounded=0;" vertex="1" parent="1">
          <mxGeometry x="340" y="280" width="60" height="10" as="geometry" />
        </mxCell>
        <mxCell id="EHeW1iRniFNbXstogo1z-18" value="MISO" style="text;html=1;align=center;verticalAlign=middle;whiteSpace=wrap;rounded=0;" vertex="1" parent="1">
          <mxGeometry x="340" y="330" width="60" height="10" as="geometry" />
        </mxCell>
        <mxCell id="EHeW1iRniFNbXstogo1z-19" value="SCL" style="text;html=1;align=center;verticalAlign=middle;whiteSpace=wrap;rounded=0;" vertex="1" parent="1">
          <mxGeometry x="340" y="380" width="60" height="10" as="geometry" />
        </mxCell>
      </root>
    </mxGraphModel>
  </diagram>
</mxfile>
